<svg id="svg" version="1.1" xmlns="http://www.w3.org/2000/svg" xmlns:xlink="http://www.w3.org/1999/xlink" width="400" height="400" viewBox="0, 0, 400,400"><g id="svgg"><path id="path0" d="M0.000 200.000 L 0.000 400.000 200.000 400.000 L 400.000 400.000 400.000 200.000 L 400.000 0.000 200.000 0.000 L 0.000 0.000 0.000 200.000 M284.600 79.873 C 296.665 82.860,304.530 96.181,301.443 108.400 C 298.078 121.721,283.473 129.740,270.829 125.210 L 268.257 124.288 266.865 125.844 C 266.099 126.700,264.286 128.663,262.836 130.206 C 261.386 131.749,259.592 133.729,258.848 134.606 C 258.105 135.483,256.393 137.370,255.045 138.800 C 253.696 140.230,251.893 142.210,251.036 143.200 C 250.180 144.190,248.382 146.175,247.040 147.612 C 245.698 149.048,243.899 151.028,243.042 152.012 C 242.185 152.995,240.293 155.060,238.837 156.600 C 237.382 158.140,235.487 160.210,234.626 161.200 C 233.765 162.190,231.247 164.960,229.031 167.356 C 226.814 169.753,224.820 171.916,224.600 172.164 C 216.341 181.472,213.961 182.408,209.399 178.148 C 208.958 177.737,204.638 173.806,199.799 169.414 C 194.959 165.021,190.910 161.325,190.800 161.199 C 190.690 161.074,187.001 157.738,182.601 153.786 C 178.202 149.834,174.259 146.290,173.839 145.912 C 173.117 145.262,173.026 145.262,172.178 145.912 C 171.685 146.290,169.958 147.617,168.341 148.861 C 162.283 153.518,153.631 160.153,148.600 163.999 C 145.740 166.185,141.240 169.629,138.600 171.651 C 135.960 173.673,130.830 177.588,127.200 180.350 C 123.570 183.112,117.450 187.793,113.600 190.752 C 105.176 197.228,104.592 197.597,102.778 197.599 C 99.679 197.602,96.000 193.836,96.000 190.661 C 96.000 188.092,96.918 187.067,104.054 181.664 C 113.443 174.557,124.244 166.330,131.228 160.968 C 134.402 158.530,138.890 155.098,141.200 153.341 C 145.417 150.134,157.542 140.811,162.400 137.042 C 174.529 127.632,173.185 127.325,190.380 143.428 C 192.041 144.984,196.550 149.117,200.400 152.612 C 204.250 156.108,208.715 160.235,210.323 161.784 C 211.931 163.333,213.393 164.653,213.573 164.717 C 213.876 164.825,218.329 160.019,227.579 149.600 C 229.630 147.290,232.319 144.319,233.554 142.998 C 235.649 140.758,241.321 134.521,245.000 130.414 C 247.352 127.788,250.911 123.900,251.600 123.204 C 257.355 117.393,258.417 115.580,257.276 113.512 C 247.532 95.847,264.541 74.908,284.600 79.873 M296.600 150.400 C 297.653 150.910,298.570 151.764,299.126 152.754 L 300.000 154.309 299.999 221.254 C 299.997 286.946,299.982 288.224,299.216 289.481 C 297.544 292.222,297.714 292.200,278.726 292.200 L 261.653 292.200 260.377 291.000 C 257.835 288.609,257.999 293.443,258.009 221.113 C 258.019 147.454,257.813 152.923,260.653 150.907 C 262.373 149.687,262.235 149.696,279.174 149.646 C 294.182 149.602,295.028 149.639,296.600 150.400 M189.208 187.604 C 192.211 189.136,192.000 185.216,191.999 239.480 C 191.997 293.836,192.214 289.593,189.336 291.478 C 187.501 292.681,154.169 292.578,152.529 291.365 C 149.871 289.398,150.040 292.910,150.019 239.326 C 149.998 186.310,149.872 188.862,152.600 187.286 C 154.217 186.353,187.318 186.640,189.208 187.604 M244.646 205.367 L 246.000 206.933 246.000 247.312 C 246.000 292.694,246.211 289.531,243.062 291.436 C 241.722 292.247,211.007 292.649,208.295 291.891 C 203.940 290.674,204.000 291.290,204.000 248.000 C 204.000 207.304,203.982 207.645,206.271 205.356 C 207.986 203.641,207.331 203.692,226.546 203.750 L 243.292 203.800 244.646 205.367 M136.242 220.485 C 138.921 222.320,138.800 220.647,138.800 255.954 L 138.800 287.882 137.900 289.204 C 135.762 292.346,136.719 292.200,118.271 292.200 C 99.955 292.200,100.050 292.213,98.384 289.481 C 97.626 288.238,97.603 287.229,97.601 255.719 C 97.600 220.980,97.536 222.041,99.716 220.500 C 101.701 219.096,134.195 219.082,136.242 220.485 " stroke="none" fill="#1c57d4" fill-rule="evenodd"></path><path id="path1" d="M275.000 79.236 C 259.091 81.530,249.677 99.736,257.276 113.512 C 258.417 115.580,257.355 117.393,251.600 123.204 C 250.911 123.900,247.352 127.788,245.000 130.414 C 241.321 134.521,235.649 140.758,233.554 142.998 C 232.319 144.319,229.630 147.290,227.579 149.600 C 218.329 160.019,213.876 164.825,213.573 164.717 C 213.393 164.653,211.931 163.333,210.323 161.784 C 208.715 160.235,204.250 156.108,200.400 152.612 C 196.550 149.117,192.041 144.984,190.380 143.428 C 173.185 127.325,174.529 127.632,162.400 137.042 C 157.542 140.811,145.417 150.134,141.200 153.341 C 138.890 155.098,134.402 158.530,131.228 160.968 C 124.244 166.330,113.443 174.557,104.054 181.664 C 96.918 187.067,96.000 188.092,96.000 190.661 C 96.000 193.836,99.679 197.602,102.778 197.599 C 104.592 197.597,105.176 197.228,113.600 190.752 C 117.450 187.793,123.570 183.112,127.200 180.350 C 130.830 177.588,135.960 173.673,138.600 171.651 C 141.240 169.629,145.740 166.185,148.600 163.999 C 153.631 160.153,162.283 153.518,168.341 148.861 C 169.958 147.617,171.685 146.290,172.178 145.912 C 173.026 145.262,173.117 145.262,173.839 145.912 C 174.259 146.290,178.202 149.834,182.601 153.786 C 187.001 157.738,190.690 161.074,190.800 161.199 C 190.910 161.325,194.959 165.021,199.799 169.414 C 204.638 173.806,208.958 177.737,209.399 178.148 C 213.961 182.408,216.341 181.472,224.600 172.164 C 224.820 171.916,226.814 169.753,229.031 167.356 C 231.247 164.960,233.765 162.190,234.626 161.200 C 235.487 160.210,237.382 158.140,238.837 156.600 C 240.293 155.060,242.185 152.995,243.042 152.012 C 243.899 151.028,245.698 149.048,247.040 147.612 C 248.382 146.175,250.180 144.190,251.036 143.200 C 251.893 142.210,253.696 140.230,255.045 138.800 C 256.393 137.370,258.105 135.483,258.848 134.606 C 259.592 133.729,261.386 131.749,262.836 130.206 C 264.286 128.663,266.099 126.700,266.865 125.844 L 268.257 124.288 270.829 125.210 C 283.473 129.740,298.078 121.721,301.443 108.400 C 305.496 92.359,291.446 76.864,275.000 79.236 M262.600 149.893 C 261.112 150.266,259.510 151.713,258.762 153.360 C 258.046 154.938,258.017 157.504,258.009 221.113 C 257.999 293.443,257.835 288.609,260.377 291.000 L 261.653 292.200 278.726 292.200 C 297.714 292.200,297.544 292.222,299.216 289.481 C 299.982 288.224,299.997 286.946,299.999 221.254 L 300.000 154.309 299.126 152.754 C 297.371 149.632,297.126 149.594,279.174 149.646 C 270.498 149.672,263.040 149.783,262.600 149.893 M152.600 187.286 C 149.872 188.862,149.998 186.310,150.019 239.326 C 150.040 292.910,149.871 289.398,152.529 291.365 C 154.169 292.578,187.501 292.681,189.336 291.478 C 192.214 289.593,191.997 293.836,191.999 239.480 C 192.000 185.216,192.211 189.136,189.208 187.604 C 187.318 186.640,154.217 186.353,152.600 187.286 M208.685 203.878 C 206.920 204.160,205.044 206.340,204.485 208.759 C 203.800 211.729,203.788 284.220,204.473 287.186 C 205.001 289.476,206.572 291.409,208.295 291.891 C 211.007 292.649,241.722 292.247,243.062 291.436 C 246.211 289.531,246.000 292.694,246.000 247.312 L 246.000 206.933 244.646 205.367 L 243.292 203.800 226.546 203.750 C 217.336 203.722,209.298 203.780,208.685 203.878 M99.716 220.500 C 97.536 222.041,97.600 220.980,97.601 255.719 C 97.603 287.229,97.626 288.238,98.384 289.481 C 100.050 292.213,99.955 292.200,118.271 292.200 C 136.719 292.200,135.762 292.346,137.900 289.204 L 138.800 287.882 138.800 255.954 C 138.800 220.647,138.921 222.320,136.242 220.485 C 134.195 219.082,101.701 219.096,99.716 220.500 " stroke="none" fill="#fafafb" fill-rule="evenodd"></path></g></svg>